<?xml version="1.0" encoding="UTF-8"?>
<!DOCTYPE svg PUBLIC "-//W3C//DTD SVG 1.1//EN" "http://www.w3.org/Graphics/SVG/1.1/DTD/svg11.dtd">
<svg version="1.1" xmlns="http://www.w3.org/2000/svg" xmlns:xlink="http://www.w3.org/1999/xlink" x="0" y="0" width="980.106" height="1003.394" viewBox="0, 0, 980.106, 1003.394">
  <g id="Layer_6" transform="translate(-542.933, -432.21)">
    <path d="M760.495,461.71 C763.743,520.173 805.757,573.74 822.206,594.876 C867.705,653.34 1157.079,635.869 1278.172,699.602 C1427.945,748.995 1536.291,924.261 1478.931,1093.154 C1423.771,1255.57 1247.716,1328.915 1173.013,1354.899 C1121.664,1372.759 820.867,1409.021 708.555,1319.171 C594.876,1228.228 555.901,1108.054 578.637,958.648 C595.314,849.05 705.935,741.034 711.803,682.571 C728.043,620.86 715.707,575.389 666.987,523.421" fill-opacity="0" stroke="#006BA7" stroke-width="15"/>
  </g>
  <g id="Layer_2" transform="translate(-542.933, -432.21)">
    <path d="M1086.69,1369.703 C1034.723,1324.232 805.994,1257.46 760.522,1049.59 C718.092,855.626 783.142,767.715 760.522,650.092 C744.282,565.645 710.188,525 710.188,525" fill-opacity="0" stroke="#006BA7" stroke-width="6"/>
    <path d="M1225.625,1332.893 C1246.876,1269.138 1306.502,1057.687 1256.506,931.892 C1214.532,826.28 1161.939,788.357 1056.525,741.587 C984.718,709.728 837.248,691.332 803.265,649.293 C765.965,603.15 749.627,536.077 748.717,518.164" fill-opacity="0" stroke="#006BA7" stroke-width="9"/>
  </g>
  <g id="Layer_3" transform="translate(-542.933, -432.21)">
    <path d="M1135.544,1366.002 C1135.544,1366.002 1147.446,1402.992 1160.663,1413.583" fill-opacity="0" stroke="#006BA7" stroke-width="9"/>
    <path d="M1145.644,1360.503 C1145.644,1360.503 1166.661,1388.506 1166.959,1411.218" fill-opacity="0" stroke="#006BA7" stroke-width="9"/>
    <path d="M1157.773,1359.484 C1157.773,1359.484 1173.312,1388.7 1186.734,1399.693" fill-opacity="0" stroke="#006BA7" stroke-width="9"/>
    <path d="M1174.46,1354.223 C1174.46,1354.223 1199.701,1392.927 1196.731,1416.313" fill-opacity="0" stroke="#006BA7" stroke-width="9"/>
    <path d="M1188.756,1348.352 C1188.756,1348.352 1192.789,1372.292 1199.588,1382.242" fill-opacity="0" stroke="#006BA7" stroke-width="9"/>
    <path d="M1196.974,1344.533 C1197.759,1353.88 1206.671,1363.083 1228.198,1371.115" fill-opacity="0" stroke="#006BA7" stroke-width="9"/>
    <path d="M1130.638,1366.414 C1130.638,1366.414 1138.38,1399.765 1128.438,1419.104" fill-opacity="0" stroke="#006BA7" stroke-width="9"/>
  </g>
</svg>
